<svg xmlns="http://www.w3.org/2000/svg" xmlns:xlink="http://www.w3.org/1999/xlink" width="300" height="46.412663"><defs><linearGradient id="e" x1="0" x2="1" y1="0" y2="0" gradientTransform="matrix(0 -17.5513 -17.5513 0 332.855 689.111)" gradientUnits="userSpaceOnUse" spreadMethod="pad"><stop offset="0" style="stop-opacity:1;stop-color:#ec1d27"/><stop offset="0.754601" style="stop-opacity:1;stop-color:#741519"/><stop offset="1" style="stop-opacity:1;stop-color:#741519"/></linearGradient><linearGradient id="d"><stop offset="0" style="stop-color:#05aee9;stop-opacity:1"/><stop offset="0.09626903" style="stop-color:#00a9e0;stop-opacity:1"/><stop offset="0.20386381" style="stop-color:#07a3dc;stop-opacity:1"/><stop offset="0.29863822" style="stop-color:#089dd5;stop-opacity:1"/><stop offset="0.40429688" style="stop-color:#0a92cc;stop-opacity:1"/><stop offset="0.5" style="stop-color:#0f87c3;stop-opacity:1"/><stop offset="0.60000002" style="stop-color:#127cb8;stop-opacity:1"/><stop offset="0.69999999" style="stop-color:#0e70ad;stop-opacity:1"/><stop offset="0.80000001" style="stop-color:#0f63a3;stop-opacity:1"/><stop offset="0.89999998" style="stop-color:#135393;stop-opacity:1"/><stop offset="1" style="stop-color:#184485;stop-opacity:1"/></linearGradient><linearGradient id="c"><stop offset="0" style="stop-color:#eb2023;stop-opacity:1"/><stop offset="0.09626903" style="stop-color:#e92026;stop-opacity:1"/><stop offset="0.20386381" style="stop-color:#e31e27;stop-opacity:1"/><stop offset="0.29863822" style="stop-color:#e01e26;stop-opacity:1"/><stop offset="0.40429688" style="stop-color:#d81f27;stop-opacity:1"/><stop offset="0.5" style="stop-color:#cf2027;stop-opacity:1"/><stop offset="0.60000002" style="stop-color:#c62127;stop-opacity:1"/><stop offset="0.69999999" style="stop-color:#b92025;stop-opacity:1"/><stop offset="0.80000001" style="stop-color:#ae1f23;stop-opacity:1"/><stop offset="0.89999998" style="stop-color:#a01d22;stop-opacity:1"/><stop offset="1" style="stop-color:#901c1c;stop-opacity:1"/></linearGradient><linearGradient id="b"><stop offset="0" style="stop-color:#e7ebee;stop-opacity:1"/><stop offset="0.24913195" style="stop-color:#dfe4e8;stop-opacity:1"/><stop offset="0.4982639" style="stop-color:#cad1d7;stop-opacity:1"/><stop offset="0.74913192" style="stop-color:#a8b5bd;stop-opacity:1"/><stop offset="1" style="stop-color:#93a6ad;stop-opacity:1"/></linearGradient><linearGradient id="a"><stop offset="0" style="stop-color:#6c221f;stop-opacity:1"/><stop offset="0.24913195" style="stop-color:#7f2620;stop-opacity:1"/><stop offset="0.4982639" style="stop-color:#982b24;stop-opacity:1"/><stop offset="0.74913192" style="stop-color:#b53125;stop-opacity:1"/><stop offset="1" style="stop-color:#cb3327;stop-opacity:1"/></linearGradient><linearGradient xlink:href="#c" id="f" x1="525.44409" x2="525.44409" y1="569.81665" y2="786.99048" gradientUnits="userSpaceOnUse"/><linearGradient xlink:href="#a" id="g" x1="531.46777" x2="652.13562" y1="643.60974" y2="566.33307" gradientUnits="userSpaceOnUse"/><linearGradient xlink:href="#b" id="h" x1="521.99634" x2="698.77301" y1="622.7948" y2="520.51685" gradientUnits="userSpaceOnUse"/><linearGradient xlink:href="#d" id="i" x1="421.73868" x2="421.73868" y1="263.43304" y2="473.23691" gradientUnits="userSpaceOnUse"/><clipPath id="k" clipPathUnits="userSpaceOnUse"><path d="M63.943 200.817h32.252V221.4H63.943v-20.583z"/></clipPath><clipPath id="j" clipPathUnits="userSpaceOnUse"><path d="M162.72 676.171H345.6v31.945H162.72v-31.945z"/></clipPath></defs><path d="m532.097 643.97 60.179 100c18.654 29.97 49.387 43.57 87.678 43.57h154.822l-181.25-219.642-25.715-14.643-67.857 22.143-34.385 49.758z" style="fill:url(#f);stroke:none" transform="matrix(.08663 0 0 .08663 221.637 -22.317)"/><path d="m653.526 567.898-37.838-45.866-100.005 53.79 10.606 54.296 5.808 13.851c-2.274-36.798 60.907-79.522 121.429-76.07z" style="fill:url(#g);stroke:none" transform="matrix(.08663 0 0 .08663 221.637 -22.317)"/><path d="m532.097 643.97-54.107-89.465c-6.518-10.149-8.304-19.03-8.304-29.375 0-11.38 4.852-17.619 23.482-27.5 21.704-10.392 65.402-14.91 110.447-14.91 73.195 0 90.74 23.49 98.214 48.839 0 0-10.334-4.108-34.643-4.108-77.11 0-138.75 37.432-138.75 94.108 0 11.893 3.66 22.41 3.66 22.41z" style="fill:url(#h);fill-opacity:1;stroke:none" transform="matrix(.08663 0 0 .08663 221.637 -22.317)"/><path d="M299.7 263.37h72.78c30.693 0 43.282 12.556 55.698 24.875 14.212 12.919 57.313 71.254 148.43 185.11h-98.616c-40.326 0-53.081-6.87-68.677-30.654z" style="fill:url(#i);fill-opacity:1;stroke:none" transform="matrix(.08663 0 0 .08663 221.637 -22.317)"/><path d="m0 0 .272-.976h.005L.553 0h.231l.179-1.222H.778l-.127.997H.647l-.285-.997H.164l-.277.993h-.003l-.127-.993h-.176L-.241 0H0zm-.575 0v-.157h-.36v-1.065h-.178v1.065h-.36V0h.898z" style="fill:#334357;fill-opacity:1;fill-rule:nonzero;stroke:none" transform="matrix(1.67991 0 0 -1.67991 297.882 43.86)"/><g clip-path="url(#j)" transform="matrix(1.67991 0 0 -1.67991 -278.364 1183.92)"><path d="M0 0h-.042l-2.136-6.038h4.319L0 0zm3.823-10.795L2.777-7.829h-5.592l-1.048-2.966H-6.25l5.009 13.202h2.66l4.932-13.202H3.823zM24.084 2.936h2.335V.729h-2.335v2.207zm.026-3.675h2.282v-10.056H24.11V-.739zM7.26 2.937h2.336V.729H7.26v2.208zm.027-3.676h2.282v-10.056H7.287V-.739zm14.332 3.663h-2.282v-13.719h2.282V2.924zm-7.274-8.815v-4.904h-2.289v7.472c0 .718-.082 2.085-.11 2.582h1.843c.199 0 .256-.084.262-.28l.02-1.246h.052c.18.435.829 1.737 2.725 1.737.635 0 1.105-.205 1.182-.236 0-.433-.045-1.383-.068-1.634-.014-.165-.086-.219-.168-.219-.078 0-.114.018-.157.035a2.52 2.52 0 0 1-.935.161c-1.218 0-2.357-.879-2.357-3.468m20.784-4.904v6.494c0 1.24-.566 1.996-1.628 1.996-1.404 0-2.336-1.494-2.336-3.51v-4.98h-2.283v7.387c0 .813-.074 1.998-.112 2.667h1.834c.207 0 .266-.085.268-.271.006-.215.024-1.255.024-1.255h.052c.275.473.978 1.738 3.082 1.738 2.169 0 3.381-1.483 3.381-3.148v-7.118h-2.282zm6.316 6.061h4.224c.087 1.621-.764 2.529-2.048 2.529-1.344 0-2.115-.972-2.176-2.529m5.631-3.853c.127 0 .164-.111.174-.225a24.14 24.14 0 0 0 .07-1.646c-.244-.078-1.471-.529-3.119-.529-3.201 0-5.127 1.656-5.127 5.221 0 3.061 1.642 5.236 4.594 5.236 2.898 0 4.276-1.938 4.276-4.344 0-.283-.031-.761-.081-1.396h-6.447c0-1.717 1.094-2.949 3.116-2.949 1.114 0 2 .399 2.352.569.07.034.111.063.192.063m5.346-2.4c2.971 0 4.393 1.215 4.393 3.021 0 1.778-1.263 2.526-2.601 2.968-.384.124-.76.25-1.111.368-.916.303-1.391.701-1.391 1.295 0 .627.572 1.066 1.76 1.066 1.056 0 1.919-.431 2.261-.596.057-.026.108-.063.199-.063.072 0 .161.045.173.223.023.337.063.948.063 1.535-.277.127-1.276.64-2.883.64-2.455 0-3.964-1.277-3.964-2.962 0-1.634 1.117-2.38 2.346-2.787.283-.096.808-.268 1.115-.372 1.283-.426 1.649-.813 1.649-1.413 0-.783-.834-1.17-2.269-1.17-1.177 0-1.986.432-2.311.584-.066.029-.105.063-.196.063-.169 0-.172-.225-.174-.262a44.104 44.104 0 0 1-.061-1.497c.269-.116 1.435-.641 3.002-.641M-82.12 0h-.042l-2.137-6.038h4.316L-82.12 0zm3.822-10.795-1.047 2.966h-5.592l-1.047-2.966h-2.386l5.009 13.203h2.658l4.932-13.203h-2.527zm37.299 13.732h2.334V.73h-2.334v2.207zm.027-3.676h2.28v-10.056h-2.28V-.739zm-4.9-5.152v-4.904h-2.285v7.472c0 .719-.082 2.086-.112 2.584h1.844c.199 0 .258-.086.259-.281l.024-1.247h.051c.181.435.828 1.737 2.725 1.737.633 0 1.107-.204 1.185-.235 0-.433-.047-1.383-.069-1.635-.015-.164-.088-.217-.169-.217-.077 0-.116.016-.158.033a2.5 2.5 0 0 1-.932.162c-1.219 0-2.363-.88-2.363-3.469m-16.857-4.904v6.434c0 1.159-.49 2.058-1.673 2.058-1.332 0-2.1-1.458-2.1-3.5v-4.992h-2.281v6.454c0 1.054-.44 2.038-1.664 2.038-1.351 0-2.107-1.455-2.107-3.572v-4.92h-2.286v7.324c0 .946-.084 2.284-.111 2.732h1.827c.206 0 .274-.068.278-.281l.021-1.247h.052c.139.287.89 1.738 2.986 1.738 1.953 0 2.7-1.401 2.885-1.833a3.318 3.318 0 0 0 3.014 1.833c2.046 0 3.442-1.098 3.442-3.304v-6.962h-2.283zm6.314 6.063h4.225c.087 1.618-.761 2.528-2.048 2.528-1.344 0-2.113-.973-2.177-2.528m5.634-3.855c.125 0 .163-.111.173-.225.039-.429.076-1.4.07-1.646-.243-.078-1.47-.529-3.118-.529-3.202 0-5.128 1.658-5.128 5.223 0 3.057 1.641 5.234 4.596 5.234 2.895 0 4.276-1.937 4.276-4.344 0-.283-.032-.761-.083-1.394h-6.447c0-1.719 1.095-2.951 3.114-2.951 1.115 0 2.003.399 2.354.571.07.034.11.061.193.061m28.632 2.894h-.388c-2.868 0-3.432-.997-3.432-2.01 0-.828.546-1.612 1.618-1.612 1.424 0 2.202 1.375 2.202 2.822v.8zm.55-5.102c-.184 0-.337.061-.357.328l-.067.963h-.031c-.135-.185-.967-1.483-3.056-1.483-2.001 0-3.149 1.542-3.149 3.235 0 2.347 2.279 3.526 5.66 3.526h.45v.369c0 1.053-.749 1.617-2.149 1.617a6.284 6.284 0 0 1-2.713-.649c-.027-.013-.101-.056-.169-.056-.108 0-.169.067-.175.186-.018.378-.057 1.105-.063 1.566.412.157 1.778.664 3.281.664 2.988 0 4.271-1.387 4.271-3.602v-3.921c0-1.43.133-2.366.18-2.743h-1.913zm-7.889 2.208c.06 0 .145-.04.165-.216a23.38 23.38 0 0 0 .064-1.509c-.456-.225-1.444-.675-2.656-.675-3.046 0-4.914 1.768-4.914 5.227 0 3.241 1.661 5.23 4.914 5.23 1.079 0 2.072-.376 2.656-.676 0-.358-.035-1.169-.064-1.51-.014-.143-.083-.212-.165-.212-.091 0-.122.024-.176.048-.735.36-1.426.534-2.048.534-1.939 0-2.737-1.269-2.737-3.414 0-1.912.638-3.411 2.737-3.411.802 0 1.533.286 1.986.504.122.057.143.08.238.08m17.845-2.208v6.494c0 1.241-.566 1.997-1.626 1.997-1.405 0-2.339-1.493-2.339-3.511v-4.98h-2.281v7.387c0 .813-.074 1.998-.11 2.669h1.831c.209 0 .269-.087.27-.273.005-.213.022-1.255.022-1.255h.05c.278.474.98 1.739 3.084 1.739 2.172 0 3.384-1.484 3.384-3.147v-7.12h-2.285z" style="fill:#334357;fill-opacity:1;fill-rule:nonzero;stroke:none" transform="translate(254.369 693.616)"/></g><g clip-path="url(#k)" transform="matrix(1.25 0 0 -1.25 -566.108 846.726)"><path d="M0 0v-12.642l.979-1.056v-9.497l3.194-1.903v-.226l1.165.55 10.133 4.778.468.222v3.806l6.038 2.115.548.193V.103h.519v.795h5.519v5.769h-294.922V.898h6.355V-4.79h-.995v-1.579l3.478-3.546 5.027-5.125 5.027 5.125 3.417 3.484v1.641h-.892V.898h2.106v-11.029h-1.066v-1.52l3.563-3.634 5.055-5.153 5.055 5.153 3.57 3.64v1.514h-1.031V.858h1.689v-37.302h18.869v13.852h18.215V.858h1.92v-39.504h15.762V.898h2.298v-24.439h12.15v-30.045h15.762V.898h3.283v-61.931l15.762 7.224v23.862h16.807v2.776h15.605v11.837h5.48V-35.79l13.909-2.71 4.001 1.979v-11.466l18.112-3.528 8.167 4.04v13.963h.218v-4.768l5.749-5.161v-4.036h1.611v3.995l5.744 5.202v4.768h1.834V.898h2.887V-24.77h3.608v-4.505h1.608v-2.853l4.973-5.326 4.913 5.326v2.853h1.609v4.505h3.194V.898h1.688V0H0z" style="fill:#086591;fill-opacity:1;fill-rule:evenodd;stroke:none" transform="matrix(.22662 0 0 -.25846 104.997 183.523)"/></g></svg>