<svg xmlns="http://www.w3.org/2000/svg" width="300" height="77.992081" viewBox="0 0 300 77.992082"><defs><clipPath id="a"><path d="M714.047 23.099H813.9v34.16h-99.853v-34.16z"/></clipPath></defs><path d="m286.795 1-43.892 75.99h12.222L299 1h-12.205Z" style="fill:#00b3f0"/><path d="m242.904 76.992 43.892-75.99h-48.828l-43.881 75.99h48.817z" style="fill:#223f9a"/><g clip-path="url(#a)" transform="matrix(3.30136 0 0 -3.30136 -2373.033 174.08)"><path d="M744.871 44.76a.431.431 0 0 0 .412.337.452.452 0 0 0 .4-.288l4.227-15.397h6.925l3.528 20.009h-3.049L754.6 34.014a.413.413 0 0 0-.403-.346.42.42 0 0 0-.396.308l-4.236 15.445h-6.922l-3.527-20.01h3.045l2.71 15.349m-11.823-8.564-.592 8.965a.468.468 0 0 1-.337.44.462.462 0 0 1-.532-.255l-9.03-15.934h-3.45l11.343 20.01h6.666l1.334-20.01h-4.948l-.145 2.18c-.024.467-.373.837-.837.837h-7.484l1.688 2.985h5.612c.41 0 .743.36.712.782m37.625-.043-.788 8.882a.447.447 0 0 1-.45.41.463.463 0 0 1-.386-.21l-8.128-15.823h-3.372l10.269 20.01h6.666l1.774-20.01h-4.986l-.195 2.182c-.037.47-.377.833-.837.833h-7.017l1.532 2.986h5.2c.425 0 .76.365.718.74" style="fill:#223f9a"/></g></svg>