<svg xmlns="http://www.w3.org/2000/svg" viewBox="0 0 64 64">
  <defs>
    <linearGradient id="bg" x1="0%" y1="0%" x2="100%" y2="100%">
      <stop offset="0%" style="stop-color:#4fc3f7"/>
      <stop offset="100%" style="stop-color:#0277bd"/>
    </linearGradient>
  </defs>
  
  <!-- Background -->
  <rect width="64" height="64" fill="url(#bg)" rx="12"/>
  
  <!-- Globe -->
  <circle cx="32" cy="32" r="22" fill="#fff" stroke="#1e88e5" stroke-width="2"/>
  
  <!-- Globe lines -->
  <g stroke="#4fc3f7" stroke-width="1" fill="none">
    <ellipse cx="20" cy="32" rx="4" ry="22"/>
    <ellipse cx="32" cy="32" rx="4" ry="22"/>
    <ellipse cx="44" cy="32" rx="4" ry="22"/>
    <ellipse cx="32" cy="18" rx="18" ry="3"/>
    <ellipse cx="32" cy="32" rx="22" ry="3"/>
    <ellipse cx="32" cy="46" rx="18" ry="3"/>
  </g>
  
  <!-- Airplane -->
  <g transform="translate(32, 32) rotate(-45)">
    <path d="M -6,0 L -4,-1.5 L 6,-1.5 L 8,0 L 6,1.5 L -4,1.5 Z" fill="#ff6f00"/>
    <path d="M -2,-1.5 L -2,-5 L 1,-4 L 1,-1.5 Z" fill="#ff6f00"/>
    <path d="M -2,1.5 L -2,5 L 1,4 L 1,1.5 Z" fill="#ff6f00"/>
  </g>
  
  <!-- Letter W (optional) -->
  <text x="32" y="58" font-family="Arial, sans-serif" font-size="12" font-weight="bold" fill="#fff" text-anchor="middle">W</text>
</svg>
